<?xml version="1.0" standalone="no"?><!DOCTYPE svg PUBLIC "-//W3C//DTD SVG 1.1//EN" "http://www.w3.org/Graphics/SVG/1.1/DTD/svg11.dtd"><svg t="1782482794496" class="icon" viewBox="0 0 1024 1024" version="1.1" xmlns="http://www.w3.org/2000/svg" p-id="13294" xmlns:xlink="http://www.w3.org/1999/xlink" width="200" height="200"><path d="M232.885 590.795c8.574 0 20.282 5.246 39.22 17.722 8.573 5.63 15.227 8.957 20.345 10.045 12.668 2.75 12.157 4.03-7.23 16.187-27.894 17.274-47.664 18.682-55.022 3.454-2.175-4.67-2.75-15.227-0.767-18.234 0.831-1.28-0.128-3.71-2.943-7.741-4.671-6.654-5.759-15.355-2.56-19.194 1.216-1.536 4.095-2.24 8.957-2.24z m113.692-190.531c18.938-4.479 43.122 3.263 67.626 21.689 5.887 4.542 12.988 9.213 15.42 10.492 2.367 1.28 4.478 3.2 4.478 4.159a27.063 27.063 0 0 1-5.438 8.701c-18.362 22.905-38.132 33.717-62.188 33.717-13.5 0.128-18.106-0.831-34.357-7.485-10.109-4.03-11.197-4.799-9.277-6.462 1.791-1.536 3.966-1.28 13.563 1.92 27.576 8.956 50.544 6.397 66.411-7.742 6.782-5.758 12.988-15.867 10.94-17.723a412.988 412.988 0 0 0-20.6-14.203c-1.088-0.64-1.536 2.047-1.664 8.573-0.128 19.322-12.156 31.35-28.727 28.791-11.516-1.983-20.601-14.267-20.601-27.96a29.303 29.303 0 0 1 2.623-12.859c4.862-9.277-1.536-7.294-13.244 4.03l-8.701 8.126-9.661-9.66 2.75-4.991c4.671-8.83 18.363-18.234 30.711-21.113z" p-id="13295"></path><path d="M478.823 0.711C497.12-0.76 532.566 0.2 550.992 2.823 652.399 17.026 737.684 71.6 788.804 155.094c15.035 24.568 24.44 44.914 40.627 87.652 16.634 44.146 23.48 71.017 34.42 133.461 5.95 34.677 8.318 45.874 20.73 100.576a3110.732 3110.732 0 0 0 35.892 141.65l12.029 43.955 6.398 23.8 7.677 4.223c4.479 2.559 13.564 10.109 21.177 17.85 11.197 11.516 14.396 15.611 19.642 26.552 9.533 19.193 12.156 30.774 12.796 57.07 1.024 33.013-3.391 54.574-16.507 80.166-16.315 31.35-41.778 54.83-81.254 74.728-25.208 12.604-28.535 19.194-26.68 54.19l1.28 22.393h-15.29l-1.92-8.061c-4.159-17.787-13.436-35.189-29.815-56.238-40.499-51.696-67.05-67.435-114.011-67.435-29.303 0-52.527 7.742-75.624 25.144-12.796 9.661-47.537 45.362-63.404 65.131a148.56 148.56 0 0 0-17.274 27.32l-6.91 14.075H472.49l8.701-9.917c4.862-5.502 15.995-17.658 24.76-27.19 8.83-9.726 25.144-28.344 36.213-41.588 22.2-26.551 30.07-34.996 44.593-48.112l9.661-8.83-20.73 10.621c-36.468 18.81-130.134 73.257-143.697 83.75a278.63 278.63 0 0 0-33.142 33.397l-6.91 8.061-212.283-0.832 9.405-6.206c22.392-14.715 42.866-40.499 53.103-66.922 5.118-13.244 10.876-35.38 10.876-41.459-0.128-3.967-0.256-3.71-4.415 3.839-12.028 22.009-32.757 35.189-59.117 37.492-35.252 3.07-62.188-16.315-66.794-48.24l-1.472-10.237-11.388-3.007a144.722 144.722 0 0 1-47.665-24.057A111.132 111.132 0 0 1 27 809.861c-3.646-11.645-3.902-14.268-3.902-36.66 0-21.818 0.383-25.593 3.71-38.005 5.823-21.56 17.019-42.674 27.64-52.079 4.606-4.159 5.118-2.751 1.791 4.03-12.284 24.825-7.294 61.741 10.557 78.696 8.38 8.061 16.826 11.516 27.895 11.516 12.988 0 21.24-3.839 30.838-14.395 16.826-18.363 21.945-39.092 31.99-131.414 4.862-43.506 14.011-140.627 14.011-148.56 0-4.8-0.448-5.503-3.775-6.335-31.925-6.91-52.463-17.85-71.657-38.132-22.776-23.928-32.437-51.44-32.437-92.386 0-68.522 31.797-144.658 82.213-197.44 34.55-35.893 100.256-79.591 145.234-96.226 80.422-29.815 162.38-8.126 221.241 58.605 32.758 37.044 56.11 87.652 70.761 153.551 3.455 15.611 4.863 19.066 7.87 21.69 1.92 1.79 4.734 3.198 6.078 3.198 3.839 0 5.694 2.88 5.694 8.957 0 5.119-0.832 6.462-8.445 13.82-21.433 21.113-35.189 49.904-42.163 88.164-3.199 17.274-3.199 52.399 0 70.057 9.277 52.08 34.293 89.7 66.347 99.808a55.662 55.662 0 0 0 39.795-2.815c24.568-12.156 45.298-42.546 55.023-80.934 7.677-30.582 8.125-62.764 1.215-96.481-9.597-47.153-35.188-82.534-66.858-92.323-3.071-0.96-6.398-2.559-7.23-3.838-2.047-2.56-2.303-9.981-0.512-9.981 0.64 0 3.2-1.664 5.502-3.583 3.711-3.071 4.287-4.543 4.287-10.109 0-6.398-8.701-39.091-16.187-60.908-28.15-82.406-78.31-147.153-134.869-174.025-28.406-13.307-53.23-18.426-87.78-17.722-12.987 0.256-22.84 0-22.008-0.448 0.96-0.512 11.068-3.199 22.392-5.758 21.561-5.118 43.826-8.701 67.563-10.685zM220.345 335.708c-1.727-3.07-3.07-4.478-3.07-3.327-0.128 4.159 12.284 32.502 19.833 45.042 4.159 7.038 7.678 13.116 7.678 13.564 0 0.383-1.152 0.831-2.56 0.831-3.262 0-34.612 7.678-35.764 8.83-0.512 0.575 1.407 2.75 4.159 5.118 2.75 2.367 5.118 4.67 5.118 5.374 0 0.576-5.118 0.704-11.516 0.448-9.597-0.704-12.54-0.32-17.915 2.047-3.582 1.664-6.91 3.711-7.357 4.863-0.832 2.047 8.317 23.032 10.109 23.032a19.514 19.514 0 0 0 5.246-2.43c10.492-6.527 23.224-4.48 34.42 5.373 10.493 9.213 11.517 19.194 3.584 35.19-9.405 19.13-15.483 24.247-25.72 21.304-3.455-0.96-6.078-2.559-6.078-3.582 0-1.088-0.96-1.92-2.048-1.92s-2.047 0.384-2.11 0.96c0 0.384-1.216 12.988-2.88 27.895-4.99 46.577-3.007 63.596 11.9 99.936 11.325 27.511 46.13 91.49 55.535 101.983 7.485 8.318 19.193 13.692 31.99 14.716 6.27 0.447 19.705-0.64 42.354-3.647 57.773-7.486 54.19-7.678 66.09 1.087 11.005 7.998 29.431 32.182 41.267 54.191 2.624 4.926 5.119 8.957 5.567 8.957 0.256 0 6.462-5.374 13.563-12.156l12.796-12.028-1.6-7.998c-4.158-21.113-3.198-55.598 2.752-96.225 1.471-10.492 8.573-51.183 15.739-90.467 7.037-39.283 13.947-79.782 15.227-89.955 2.431-21.113 4.414-80.998 2.879-92.77l-0.96-7.87-12.732-2.175a449.904 449.904 0 0 0-97.696-5.246l-15.867 1.215-5.822-6.526c-5.695-6.334-5.95-6.462-11.773-5.502-19.833 3.327-29.814 7.614-52.079 22.777a142.93 142.93 0 0 1-16.635 10.364c-2.43 0-2.879-4.414-0.64-8.509 1.28-2.367 5.119-7.357 8.446-11.068 3.455-3.583 5.758-6.654 5.118-6.654-0.704 0-10.556 1.663-21.753 3.71-18.49 3.328-20.857 3.456-23.864 1.664-6.782-4.159-23.673-21.817-31.67-33.397a320.857 320.857 0 0 1-11.324-17.019z m-14.459 114.076c-4.734 0-8.19 6.654-8.19 15.739 0.129 22.968 10.11 35.956 20.858 27.255l3.327-2.623-3.583-2.943c-5.95-4.479-9.98-15.74-9.98-27.511 0-8.51-0.385-9.917-2.432-9.917zM314.203 249.4c-1.087 0 0.64 13.82 3.711 28.79 5.566 26.616 15.995 58.158 26.104 78.887l5.118 10.493 7.678-0.576a26.935 26.935 0 0 0 8.125-1.087c0.384-0.256-0.832-3.2-2.623-6.398-24.312-43.059-34.293-65.9-44.402-100.128a37.556 37.556 0 0 0-3.71-9.981z" p-id="13296"></path><path d="M630.582 424.96c15.227-3.2 37.108 1.28 45.618 9.277 4.67 4.478 4.798 6.462 0.831 9.277-3.774 2.559-8.893 2.75-21.56 0.512a67.242 67.242 0 0 0-23.481 0.32c-12.028 1.471-14.716 1.471-19.194-0.192-4.03-1.472-5.31-2.752-5.31-5.375 0-2.495 1.791-4.158 8.573-7.87a61.932 61.932 0 0 1 14.523-5.95z m-18.298-165.643c20.218-3.775 25.592-3.775 28.215 0.128a14.715 14.715 0 0 1 2.24 7.421c0 6.91-4.48 9.405-21.754 12.348-8.125 1.216-16.506 2.56-18.554 3.007-7.933 1.536-13.18-12.284-6.974-17.914a61.1 61.1 0 0 1 16.891-4.99z" p-id="13297"></path></svg>